<svg width="48" height="48" xmlns="http://www.w3.org/2000/svg" xmlns:xlink="http://www.w3.org/1999/xlink" xml:space="preserve" overflow="hidden"><defs><clipPath id="clip0"><rect x="592" y="360" width="48" height="48"/></clipPath></defs><g clip-path="url(#clip0)" transform="translate(-592 -360)"><path d="M627 367.784 627 364.5 605 364.5 605 367.784 599 367.784 599 377.934C599.026 380.461 600.013 382.885 601.758 384.714 604.471 387.525 607.691 388.806 612.486 388.983L612.908 389.458C613.445 390.035 613.807 390.754 613.95 391.53 613.985 391.754 614.001 391.982 614 392.209L614 398 612 398C610.62 398.002 609.502 399.12 609.5 400.5L608 400.5C606.621 400.503 605.503 401.621 605.5 403L605.5 404 626.5 404 626.5 403C626.497 401.62 625.38 400.503 624 400.5L622.5 400.5C622.498 399.12 621.38 398.002 620 398L618 398 618 392.259C618 391.919 618.04 391.58 618.12 391.249 618.288 390.615 618.607 390.03 619.05 389.546L619.541 388.983C624.373 388.818 627.615 387.534 630.341 384.709 632.085 382.881 633.07 380.459 633.096 377.932L633.096 367.782ZM602.481 384.021C600.924 382.371 600.039 380.2 600 377.932L600 368.782 605 368.782 605 377.255C605 379.025 605.493 380.76 606.422 382.266L606.433 382.259C606.783 382.818 607.181 383.345 607.623 383.835L607.623 383.835C608.357 384.678 609.107 385.408 609.833 386.112L610.178 386.448C610.464 386.729 610.756 387.035 611.068 387.387L611.55 387.929C607.529 387.638 604.843 386.469 602.481 384.021ZM624 401.5 624 401.5C624.827 401.503 625.497 402.173 625.5 403L606.5 403 606.5 403C606.503 402.173 607.173 401.503 608 401.5L624 401.5ZM620 399C620.828 399 621.5 399.672 621.5 400.5L610.5 400.5C610.5 399.672 611.172 399 612 399L614.5 399 617.5 399ZM618.297 388.888C617.747 389.493 617.353 390.222 617.147 391.013 617.048 391.421 616.997 391.839 616.997 392.259L616.997 398 615 398 615 392.209C615 391.928 614.978 391.648 614.933 391.371 614.761 390.407 614.318 389.513 613.655 388.792L611.815 386.722C611.487 386.353 611.18 386.03 610.876 385.733L610.529 385.396C609.818 384.704 609.083 383.991 608.354 383.153 607.99 382.749 607.655 382.321 607.35 381.871L607.278 381.746C606.443 380.397 606.001 378.842 606 377.255L606 365.5 626 365.5 626 368.244 625.95 371.303 625.95 377.303C625.949 378.89 625.507 380.445 624.672 381.794L624.604 381.906C624.43 382.156 623.901 382.857 623.565 383.237 622.946 383.963 622.285 384.652 621.584 385.3 620.966 385.892 620.361 386.526 619.784 387.185ZM632.097 377.932C632.059 380.198 631.175 382.369 629.619 384.017 627.239 386.485 624.526 387.656 620.456 387.935L620.539 387.841C621.094 387.204 621.679 386.591 622.276 386.021 623.001 385.351 623.686 384.639 624.326 383.888 624.767 383.396 625.166 382.868 625.517 382.308L625.529 382.315C626.459 380.81 626.951 379.075 626.95 377.305L626.95 371.311 626.992 368.784 632.097 368.784Z" stroke="#7F7F7F" stroke-width="0.666667"/></g></svg>