<svg width="48" height="48" xmlns="http://www.w3.org/2000/svg" xmlns:xlink="http://www.w3.org/1999/xlink" xml:space="preserve" overflow="hidden"><defs><clipPath id="clip0"><rect x="457" y="372" width="48" height="48"/></clipPath></defs><g clip-path="url(#clip0)" transform="translate(-457 -372)"><path d="M468.8 402.858 467.55 406.608 470.4 409.458 474.15 408.208C475.145 408.765 476.202 409.201 477.3 409.508L479.05 413.008 483.05 413.008 484.8 409.508C485.885 409.21 486.927 408.773 487.9 408.208L491.65 409.458 494.5 406.608 493.25 402.858C493.806 401.864 494.243 400.806 494.55 399.708L498.05 397.958 498.05 393.958 494.5 392.258C494.202 391.174 493.765 390.132 493.2 389.159L494.45 385.409 491.6 382.559 487.85 383.809C486.855 383.252 485.798 382.816 484.7 382.509L483 379 479 379 477.25 382.5C476.165 382.798 475.123 383.235 474.15 383.8L470.4 382.55 467.55 385.4 468.8 389.15C468.244 390.145 467.807 391.202 467.5 392.3L464 394 464 398 467.5 399.75C467.798 400.838 468.235 401.883 468.8 402.858ZM465 394.632 467.937 393.205 468.345 393.005 468.465 392.567C468.752 391.545 469.159 390.561 469.677 389.634L469.887 389.251 469.749 388.836 468.694 385.672 470.671 383.695 473.834 384.75 474.262 384.892 474.651 384.667C475.55 384.145 476.512 383.742 477.513 383.466L477.945 383.349 478.145 382.949 479.619 380 482.375 380 483.8 382.94 484 383.348 484.438 383.467C485.459 383.755 486.443 384.162 487.37 384.68L487.753 384.891 488.168 384.752 491.332 383.697 493.308 385.674 492.253 388.839 492.111 389.266 492.336 389.655C492.858 390.554 493.262 391.516 493.536 392.518L493.657 392.96 494.069 393.158 497.05 394.586 497.05 397.34 494.103 398.814 493.703 399.013 493.585 399.444C493.298 400.466 492.891 401.451 492.374 402.377L492.163 402.76 492.301 403.175 493.356 406.34 491.38 408.316 488.216 407.262 487.789 407.119 487.398 407.345C486.5 407.867 485.538 408.27 484.536 408.545L484.105 408.663 483.905 409.062 482.431 412.013 479.669 412.013 478.195 409.062 477.996 408.663 477.564 408.545C476.543 408.258 475.559 407.851 474.633 407.333L474.25 407.122 473.835 407.26 470.671 408.315 468.694 406.339 469.75 403.175 469.892 402.747 469.667 402.358C469.145 401.459 468.741 400.497 468.466 399.495L468.349 399.064 467.948 398.863 465 397.389Z" stroke="#7F7F7F" stroke-width="0.666667"/><path d="M481 402.008C484.314 402.008 487 399.322 487 396.008 487 392.695 484.314 390.008 481 390.008 477.686 390.008 475 392.695 475 396.008 475.01 399.318 477.691 401.998 481 402.008ZM481 391.005C483.761 391.005 486 393.244 486 396.005 486 398.766 483.761 401.005 481 401.005 478.239 401.005 476 398.766 476 396.005 476.004 393.245 478.24 391.009 481 391.005Z" stroke="#7F7F7F" stroke-width="0.666667"/></g></svg>