<svg width="69" height="69" xmlns="http://www.w3.org/2000/svg" xmlns:xlink="http://www.w3.org/1999/xlink" xml:space="preserve" overflow="hidden"><defs><clipPath id="clip0"><rect x="706" y="359" width="69" height="69"/></clipPath><clipPath id="clip1"><path d="M706.784 393.417 740.726 359.476 774.667 393.417 740.726 427.358Z" fill-rule="evenodd" clip-rule="evenodd"/></clipPath><clipPath id="clip2"><path d="M706.784 393.417 740.726 359.476 774.667 393.417 740.726 427.358Z" fill-rule="evenodd" clip-rule="evenodd"/></clipPath><clipPath id="clip3"><path d="M706.784 393.417 740.726 359.476 774.667 393.417 740.726 427.358Z" fill-rule="evenodd" clip-rule="evenodd"/></clipPath></defs><g clip-path="url(#clip0)" transform="translate(-706 -359)"><g clip-path="url(#clip1)"><g clip-path="url(#clip2)"><g clip-path="url(#clip3)"><path d="M735.475 403.086 731.396 409.552C731.081 410.061 730.459 410.29 729.889 410.105 729.296 409.947 728.885 409.408 728.888 408.795L728.888 397.576C728.907 397.033 729.227 396.547 729.717 396.314L731.778 395.426C731.676 395.112 731.582 394.787 731.488 394.462L729.305 395.403C728.466 395.795 727.918 396.625 727.889 397.551L727.889 408.794C727.878 409.854 728.586 410.788 729.61 411.064 730.422 411.318 731.308 411.1 731.91 410.5 732.035 410.374 732.146 410.236 732.242 410.086L736.09 403.987C735.889 403.703 735.686 403.406 735.475 403.086Z" stroke="#7F7F7F" stroke-width="0.666667"/><path d="M749.451 394.274C749.358 394.6 749.263 394.923 749.161 395.24L751.608 396.319C752.104 396.527 752.427 397.014 752.425 397.552L752.425 408.795C752.438 409.547 751.84 410.167 751.088 410.18 750.615 410.189 750.171 409.95 749.916 409.55L745.563 402.769C745.361 403.08 745.159 403.382 744.955 403.674L749.075 410.09C749.628 410.988 750.718 411.398 751.726 411.088 752.749 410.802 753.449 409.859 753.426 408.797L753.426 397.554C753.428 396.613 752.864 395.763 751.997 395.399Z" stroke="#7F7F7F" stroke-width="0.666667"/><path d="M740.798 364.843C739.845 364.844 738.172 366.752 735.826 370.515 735.245 371.449 734.695 372.436 734.146 373.534L733.514 374.802C732.028 378.466 731.282 382.389 731.319 386.343 731.316 395.038 735.393 401.543 737.823 404.648L737.973 404.84 742.844 404.84 742.995 404.648C745.995 400.815 749.571 394.528 749.571 386.344 749.627 382.395 748.889 378.475 747.401 374.817L746.698 373.328C746.376 372.645 746.016 371.96 745.633 371.292L745.085 370.339C743.003 366.703 741.868 364.806 740.798 364.843ZM746.488 375.225C747.919 378.755 748.627 382.535 748.572 386.343 748.572 394.107 745.229 400.112 742.357 403.839L738.463 403.839C736.098 400.766 732.318 394.562 732.318 386.343 732.281 382.533 732.995 378.753 734.421 375.219L735.04 373.981C735.243 373.575 735.448 373.187 735.651 372.812 737.188 372.395 738.772 372.181 740.364 372.174 742.05 372.178 743.727 372.412 745.35 372.869 745.504 373.164 745.653 373.46 745.793 373.757ZM744.219 370.834 744.693 371.662C743.272 371.348 741.821 371.184 740.365 371.173 739.01 371.185 737.659 371.331 736.333 371.608 736.446 371.418 736.56 371.228 736.676 371.043 738.973 367.356 740.429 365.896 740.806 365.843 741.411 365.931 743.032 368.765 744.216 370.834Z" stroke="#7F7F7F" stroke-width="0.666667"/><path d="M741.047 405.978C740.837 406.043 740.62 406.085 740.401 406.103 740.169 406.092 739.939 406.053 739.716 405.989 739.297 405.885 738.821 405.768 738.418 406.085 738.05 406.377 737.895 406.905 737.895 407.912 737.895 409.371 738.546 415.105 740.41 415.165 740.709 415.158 740.993 415.028 741.193 414.806 741.629 414.37 742.004 413.536 742.327 412.291 742.695 410.857 742.896 409.385 742.925 407.905 742.91 406.89 742.742 406.335 742.362 406.049 741.946 405.735 741.469 405.864 741.047 405.978ZM741.925 407.91C741.925 410.535 740.984 413.981 740.442 414.166 739.854 413.96 738.894 410.432 738.894 407.91 738.862 407.562 738.904 407.211 739.016 406.88 739.173 406.885 739.328 406.912 739.478 406.958 739.781 407.045 740.094 407.093 740.41 407.102L740.426 407.102C740.726 407.084 741.022 407.03 741.309 406.942 741.455 406.896 741.605 406.862 741.757 406.842 741.762 406.85 741.91 407.006 741.925 407.91Z" stroke="#7F7F7F" stroke-width="0.666667"/><path d="M736.904 380.839C736.898 382.764 738.452 384.328 740.377 384.334 741.321 384.337 742.227 383.957 742.885 383.279 743.54 382.632 743.91 381.75 743.914 380.829 743.911 378.893 742.339 377.326 740.403 377.329 738.468 377.331 736.9 378.903 736.903 380.839ZM742.915 380.828C742.933 382.211 741.827 383.348 740.443 383.366 739.059 383.385 737.923 382.278 737.905 380.894 737.904 380.872 737.904 380.85 737.905 380.828 737.908 380.17 738.173 379.54 738.641 379.078 739.598 378.091 741.173 378.067 742.16 379.024 742.647 379.497 742.92 380.149 742.915 380.828Z" stroke="#7F7F7F" stroke-width="0.666667"/></g></g></g></g></svg>