<svg width="42" height="41" xmlns="http://www.w3.org/2000/svg" xmlns:xlink="http://www.w3.org/1999/xlink" xml:space="preserve" overflow="hidden"><defs><clipPath id="clip0"><rect x="706" y="373" width="42" height="41"/></clipPath><clipPath id="clip1"><path d="M706.784 393.417 727.149 373.052 747.514 393.417 727.149 413.781Z" fill-rule="evenodd" clip-rule="evenodd"/></clipPath><clipPath id="clip2"><path d="M706.784 393.417 727.149 373.052 747.514 393.417 727.149 413.781Z" fill-rule="evenodd" clip-rule="evenodd"/></clipPath><clipPath id="clip3"><path d="M706.784 393.417 727.149 373.052 747.514 393.417 727.149 413.781Z" fill-rule="evenodd" clip-rule="evenodd"/></clipPath></defs><g clip-path="url(#clip0)" transform="translate(-706 -373)"><g clip-path="url(#clip1)"><g clip-path="url(#clip2)"><g clip-path="url(#clip3)"><path d="M723.999 399.219 721.551 403.098C721.362 403.404 720.989 403.541 720.647 403.43 720.291 403.335 720.045 403.012 720.047 402.644L720.046 395.912C720.058 395.587 720.25 395.295 720.544 395.155L721.78 394.622C721.719 394.434 721.663 394.239 721.606 394.044L720.297 394.608C719.793 394.843 719.465 395.342 719.447 395.897L719.447 402.643C719.441 403.279 719.865 403.84 720.48 404.005 720.967 404.157 721.498 404.027 721.86 403.667 721.935 403.591 722.002 403.508 722.059 403.418L724.368 399.759C724.247 399.588 724.125 399.41 723.999 399.219Z" stroke="#7F7F7F" stroke-width="0.4"/><path d="M732.384 393.931C732.328 394.126 732.272 394.321 732.211 394.51L733.678 395.158C733.976 395.283 734.17 395.575 734.169 395.898L734.169 402.644C734.177 403.095 733.818 403.467 733.367 403.475 733.083 403.48 732.816 403.337 732.663 403.097L730.052 399.028C729.93 399.215 729.809 399.396 729.687 399.571L732.159 403.421C732.491 403.96 733.145 404.206 733.749 404.019 734.363 403.848 734.783 403.282 734.77 402.645L734.77 395.899C734.77 395.334 734.432 394.825 733.912 394.606Z" stroke="#7F7F7F" stroke-width="0.4"/><path d="M727.192 376.273C726.621 376.273 725.617 377.418 724.209 379.676 723.861 380.236 723.531 380.828 723.201 381.487L722.822 382.248C721.931 384.446 721.483 386.8 721.505 389.173 721.504 394.39 723.95 398.293 725.407 400.156L725.498 400.271 728.42 400.271 728.511 400.156C730.31 397.856 732.456 394.083 732.456 389.173 732.49 386.804 732.047 384.452 731.155 382.257L730.733 381.364C730.539 380.954 730.323 380.542 730.093 380.142L729.765 379.57C728.516 377.389 727.834 376.25 727.192 376.273ZM730.607 382.502C731.465 384.619 731.89 386.888 731.857 389.173 731.857 393.831 729.851 397.434 728.128 399.67L725.791 399.67C724.372 397.826 722.105 394.104 722.105 389.173 722.082 386.886 722.511 384.618 723.367 382.498L723.738 381.755C723.86 381.512 723.983 381.279 724.105 381.054 725.026 380.804 725.977 380.675 726.932 380.671 727.944 380.674 728.95 380.814 729.924 381.088 730.016 381.265 730.106 381.443 730.19 381.621ZM729.245 379.867 729.53 380.364C728.677 380.176 727.806 380.077 726.932 380.07 726.12 380.078 725.309 380.165 724.514 380.332 724.582 380.218 724.65 380.104 724.719 379.992 726.098 377.78 726.971 376.904 727.197 376.872 727.561 376.926 728.533 378.626 729.243 379.867Z" stroke="#7F7F7F" stroke-width="0.4"/><path d="M727.342 400.953C727.216 400.993 727.086 401.018 726.954 401.028 726.815 401.022 726.677 400.999 726.543 400.96 726.292 400.898 726.006 400.827 725.765 401.017 725.544 401.193 725.451 401.51 725.451 402.114 725.451 402.99 725.841 406.43 726.96 406.466 727.139 406.461 727.309 406.383 727.43 406.25 727.691 405.988 727.916 405.488 728.11 404.741 728.331 403.881 728.451 402.998 728.469 402.11 728.46 401.501 728.359 401.168 728.131 400.996 727.882 400.808 727.595 400.885 727.342 400.953ZM727.869 402.113C727.869 403.687 727.304 405.756 726.979 405.866 726.626 405.743 726.05 403.626 726.05 402.113 726.031 401.904 726.056 401.693 726.124 401.495 726.218 401.498 726.311 401.514 726.4 401.542 726.582 401.593 726.77 401.622 726.96 401.628L726.969 401.628C727.149 401.617 727.327 401.585 727.499 401.532 727.587 401.504 727.677 401.484 727.768 401.472 727.771 401.476 727.86 401.57 727.869 402.113Z" stroke="#7F7F7F" stroke-width="0.4"/><path d="M724.856 385.87C724.852 387.025 725.785 387.964 726.94 387.967 727.507 387.969 728.05 387.741 728.445 387.334 728.838 386.946 729.06 386.417 729.062 385.864 729.06 384.702 728.117 383.762 726.956 383.764 725.794 383.766 724.854 384.709 724.856 385.87ZM728.463 385.863C728.474 386.693 727.81 387.375 726.98 387.386 726.149 387.397 725.468 386.733 725.457 385.903 725.456 385.89 725.456 385.877 725.456 385.863 725.458 385.468 725.617 385.091 725.899 384.813 726.473 384.221 727.418 384.207 728.009 384.781 728.302 385.065 728.466 385.456 728.463 385.863Z" stroke="#7F7F7F" stroke-width="0.4"/></g></g></g></g></svg>