<svg width="20" height="20" viewBox="0 0 20 20" fill="none" xmlns="http://www.w3.org/2000/svg">
<path d="M4.02445 19.1509H16.2656V18.4066C16.2656 17.7354 15.7198 17.1895 15.0485 17.1895H5.24151C4.57069 17.1895 4.02445 17.7354 4.02445 18.4066V19.1509ZM16.401 19.9624H3.88913C3.51638 19.9624 3.21289 19.6593 3.21289 19.2862V18.4066C3.21289 17.2881 4.12307 16.3779 5.24151 16.3779H15.0485C16.167 16.3779 17.0772 17.2881 17.0772 18.4066V19.2862C17.0772 19.6593 16.7736 19.9624 16.401 19.9624Z" fill="#767676"/>
<path d="M6.71976 16.3788H13.5841V14.2148H6.71976V16.3788ZM13.99 17.1904H6.31417C6.08976 17.1904 5.9082 17.0084 5.9082 16.7844V13.8088C5.9082 13.5849 6.08976 13.4033 6.31417 13.4033H13.99C14.2143 13.4033 14.3955 13.5849 14.3955 13.8088V16.7844C14.3955 17.0084 14.2143 17.1904 13.99 17.1904Z" fill="#767676"/>
<path d="M17.9291 14.214H2.37367C1.40423 14.214 0.615234 13.4251 0.615234 12.4553V2.90785C0.615234 2.04813 1.22991 1.31914 2.07634 1.17464C2.29569 1.13721 2.50707 1.28556 2.54459 1.50648C2.58239 1.7274 2.43367 1.93694 2.21276 1.97473C1.75744 2.05235 1.42679 2.44492 1.42679 2.90785V12.4553C1.42679 12.9774 1.85193 13.4025 2.37367 13.4025H17.9291C18.4509 13.4025 18.876 12.9774 18.876 12.4553V2.90785C18.876 2.38565 18.4509 1.96097 17.9291 1.96097H9.98221C9.75826 1.96097 9.5767 1.77941 9.5767 1.55501C9.5767 1.33097 9.75826 1.14941 9.98221 1.14941H17.9291C18.8985 1.14941 19.6875 1.9384 19.6875 2.90785V12.4553C19.6875 13.4251 18.8985 14.214 17.9291 14.214Z" fill="#767676"/>
<path d="M19.2816 11.8809H1.0212C0.796886 11.8809 0.615234 11.699 0.615234 11.4753C0.615234 11.2513 0.796886 11.0693 1.0212 11.0693H19.2816C19.5056 11.0693 19.6875 11.2513 19.6875 11.4753C19.6875 11.699 19.5056 11.8809 19.2816 11.8809Z" fill="#767676"/>
<path d="M10.3818 9.58171H15.251V8.38143C15.251 7.66354 14.6674 7.0795 13.9495 7.0795H11.6838C10.9655 7.0795 10.3818 7.66354 10.3818 8.38143V9.58171ZM15.6566 10.3933H9.97582C9.75187 10.3933 9.57031 10.2117 9.57031 9.98767V8.38143C9.57031 7.21593 10.5183 6.26758 11.6838 6.26758H13.9495C15.1146 6.26758 16.0626 7.21593 16.0626 8.38143V9.98767C16.0626 10.2117 15.881 10.3933 15.6566 10.3933Z" fill="#767676"/>
<path d="M12.8235 3.15629C12.3389 3.15629 11.9444 3.55078 11.9444 4.03592C11.9444 4.52023 12.3389 4.91473 12.8235 4.91473C13.3082 4.91473 13.7027 4.52023 13.7027 4.03592C13.7027 3.55078 13.3082 3.15629 12.8235 3.15629ZM12.8235 5.72629C11.8912 5.72629 11.1328 4.96785 11.1328 4.03592C11.1328 3.10317 11.8912 2.34473 12.8235 2.34473C13.7559 2.34473 14.5143 3.10317 14.5143 4.03592C14.5143 4.96785 13.7559 5.72629 12.8235 5.72629Z" fill="#767676"/>
<path d="M11.5388 10.3932C11.3144 10.3932 11.1328 10.2116 11.1328 9.98758V8.95052C11.1328 8.72657 11.3144 8.54492 11.5388 8.54492C11.7624 8.54492 11.9444 8.72657 11.9444 8.95052V9.98758C11.9444 10.2116 11.7624 10.3932 11.5388 10.3932Z" fill="#767676"/>
<path d="M14.1068 10.3932C13.8828 10.3932 13.7012 10.2116 13.7012 9.98758V8.95052C13.7012 8.72657 13.8828 8.54492 14.1068 8.54492C14.3312 8.54492 14.5127 8.72657 14.5127 8.95052V9.98758C14.5127 10.2116 14.3312 10.3932 14.1068 10.3932Z" fill="#767676"/>
<path d="M4.04436 4.44147H5.22592C5.36812 4.44147 5.49922 4.51532 5.57298 4.63642L6.06766 5.45027L6.14142 4.80119C6.16472 4.59596 6.33867 4.44147 6.54472 4.44147H7.7783L8.20225 0.811927H3.69454L4.04436 4.44147ZM6.33601 7.07917C6.19647 7.07917 6.06381 7.00688 5.98931 6.88413L4.99775 5.25303H3.67582C3.46674 5.25303 3.29206 5.09404 3.27179 4.88605L2.84371 0.444954C2.83261 0.331009 2.87004 0.21789 2.94729 0.133028C3.02408 0.0485321 3.13307 0 3.24775 0H8.65784C8.77408 0 8.88417 0.0497248 8.96105 0.136055C9.03821 0.222477 9.07454 0.338257 9.06115 0.453028L8.54243 4.8945C8.51876 5.09862 8.34555 5.25303 8.13949 5.25303H6.90674L6.73894 6.71899C6.7194 6.89147 6.59252 7.03211 6.4228 7.06954C6.39408 7.07605 6.36472 7.07917 6.33601 7.07917Z" fill="#767676"/>
<path d="M8.65783 7.0795H3.8337C3.60929 7.0795 3.42773 6.89749 3.42773 6.67354C3.42773 6.4495 3.60929 6.26758 3.8337 6.26758H8.65783C8.88223 6.26758 9.06342 6.4495 9.06342 6.67354C9.06342 6.89749 8.88223 7.0795 8.65783 7.0795Z" fill="#767676"/>
<path d="M19.278 19.9629H0.679401C0.455364 19.9629 0.273438 19.7809 0.273438 19.557C0.273438 19.3329 0.455364 19.1514 0.679401 19.1514H19.278C19.5021 19.1514 19.684 19.3329 19.684 19.557C19.684 19.7809 19.5021 19.9629 19.278 19.9629Z" fill="#767676"/>
</svg>
