<svg width="40" height="40" viewBox="0 0 40 40" fill="none" xmlns="http://www.w3.org/2000/svg">
<path d="M19.9018 17.4424C21.001 17.4647 21.895 16.7912 22.6276 15.4202C23.1794 14.3875 23.4714 13.152 23.4714 11.8476C23.4714 11.2224 23.1633 10.649 22.6477 10.3157C21.9965 9.89489 20.9921 9.39196 19.9039 9.39196C18.8232 9.39196 17.8943 9.78022 17.3055 10.1054C16.7329 10.4216 16.3773 11.0327 16.3773 11.7002V11.8476C16.3773 13.1424 16.6646 14.369 17.2068 15.395C17.9418 16.7831 18.8433 17.4675 19.9018 17.4424V17.4424ZM20.0173 19.0158C19.9787 19.0158 19.941 19.0158 19.9018 19.0135C18.2669 19.0654 16.8402 18.0647 15.8173 16.1297C15.1551 14.8787 14.8047 13.3971 14.8047 11.8476V11.7002C14.8047 10.4609 15.4714 9.32085 16.5455 8.72831C17.2957 8.31356 18.4884 7.81934 19.9039 7.81934C21.3766 7.81934 22.6735 8.45862 23.5025 8.9964C24.4676 9.62094 25.044 10.686 25.044 11.8476C25.044 13.4097 24.6877 14.9024 24.015 16.1616C23.0157 18.0312 21.6358 19.0158 20.0173 19.0158V19.0158Z" fill="#323232"/>
<path d="M15.5906 34.0435C15.1565 34.0435 14.8047 33.6924 14.8047 33.2576V25.8035C14.8047 25.3694 15.1565 25.0176 15.5906 25.0176C16.0255 25.0176 16.3773 25.3694 16.3773 25.8035V33.2576C16.3773 33.6924 16.0255 34.0435 15.5906 34.0435Z" fill="#323232"/>
<path d="M24.243 34.0435C23.8089 34.0435 23.457 33.6924 23.457 33.2576V25.8035C23.457 25.3694 23.8089 25.0176 24.243 25.0176C24.6778 25.0176 25.0297 25.3694 25.0297 25.8035V33.2576C25.0297 33.6924 24.6778 34.0435 24.243 34.0435Z" fill="#323232"/>
<path d="M12.3537 32.4714H27.4952V26.7448C27.422 24.0047 25.7427 21.7582 23.753 21.7582H16.0959C14.1064 21.7582 12.4271 24.0047 12.353 26.7655L12.3537 32.4714ZM28.2819 34.044H11.567C11.1331 34.044 10.7812 33.6929 10.7812 33.2581V26.7448C10.8797 23.0574 13.2138 20.1855 16.0959 20.1855H23.753C26.6353 20.1855 28.9693 23.0574 29.0678 26.724V33.2581C29.0678 33.6929 28.716 34.044 28.2819 34.044Z" fill="#323232"/>
<path d="M29.8092 19.7801C29.4529 19.7801 29.1308 19.5364 29.0448 19.1748C28.9449 18.7526 29.2055 18.3289 29.6286 18.2281L33.7937 17.24C34.2144 17.1401 34.6403 17.4015 34.7404 17.8237C34.8403 18.2468 34.5797 18.6711 34.1566 18.7703L29.9914 19.7586C29.9308 19.7734 29.8693 19.7801 29.8092 19.7801V19.7801Z" fill="#323232"/>
<path d="M36.4789 15.6328C36.3434 15.6328 36.2057 15.6484 36.0686 15.681C35.6057 15.7914 35.2131 16.0744 34.9642 16.4796C34.7145 16.884 34.6375 17.3617 34.7472 17.8248C34.8567 18.287 35.1404 18.6788 35.5449 18.9284C35.95 19.1788 36.4279 19.2566 36.8901 19.1455C37.353 19.0358 37.7449 18.7528 37.9945 18.3476C38.2442 17.9425 38.3212 17.4655 38.2115 17.0026C38.0176 16.1855 37.2849 15.6328 36.4789 15.6328V15.6328ZM36.473 20.7677C35.859 20.7677 35.2553 20.5972 34.7198 20.2676C33.9575 19.7972 33.4234 19.0588 33.2167 18.1869C33.0101 17.3151 33.1553 16.4166 33.6249 15.6536C34.0953 14.8915 34.8345 14.3572 35.7056 14.1507C37.5041 13.7233 39.3153 14.841 39.742 16.6396C39.9486 17.5114 39.8033 18.4106 39.3331 19.1729C38.8634 19.9359 38.1242 20.4692 37.2531 20.6765C36.9937 20.738 36.7331 20.7677 36.473 20.7677Z" fill="#323232"/>
<path d="M28.6955 15.9222C28.5549 15.9222 28.4127 15.8844 28.2838 15.8044C27.9142 15.577 27.7993 15.0925 28.0274 14.7229L30.2742 11.0785C30.5015 10.7089 30.9867 10.594 31.3563 10.8228C31.7259 11.0502 31.8407 11.5347 31.6127 11.9044L29.3659 15.548C29.2171 15.7896 28.9593 15.9222 28.6955 15.9222V15.9222Z" fill="#323232"/>
<path d="M32.3023 7.527C31.7053 7.527 31.12 7.82763 30.7844 8.37216C30.5348 8.77732 30.4578 9.25518 30.5675 9.7174C30.677 10.1803 30.96 10.5722 31.3652 10.8225C32.2007 11.3359 33.2992 11.0781 33.8148 10.241C34.3296 9.4054 34.0688 8.3062 33.2333 7.79065C32.9437 7.61216 32.6215 7.527 32.3023 7.527ZM32.2941 12.658C31.6941 12.658 31.0866 12.498 30.5392 12.1602C29.7778 11.6907 29.2438 10.9521 29.037 10.0802C28.8304 9.20914 28.9755 8.30923 29.4459 7.54692C30.4164 5.97287 32.4859 5.48398 34.0585 6.45216C35.6326 7.42318 36.1238 9.49287 35.1533 11.0662C34.52 12.0929 33.4199 12.658 32.2941 12.658V12.658Z" fill="#323232"/>
<path d="M34.2347 25.965C34.0941 25.965 33.951 25.9266 33.823 25.848L30.1785 23.6005C29.8088 23.3732 29.6941 22.8887 29.9215 22.5191C30.1503 22.1495 30.634 22.0347 31.0036 22.2628L34.648 24.5095C35.0176 24.7376 35.1325 25.2213 34.9044 25.5909C34.7563 25.8316 34.4985 25.965 34.2347 25.965V25.965Z" fill="#323232"/>
<path d="M36.4212 24.7466C35.8233 24.7466 35.239 25.0458 34.9026 25.5911C34.3878 26.4273 34.6486 27.5258 35.4842 28.0414C36.3197 28.5555 37.4182 28.2963 37.9337 27.4607C38.1833 27.0556 38.2603 26.5777 38.1508 26.1148C38.0404 25.6519 37.7574 25.26 37.3529 25.0103C37.0626 24.8318 36.7396 24.7466 36.4212 24.7466V24.7466ZM36.413 29.8778C35.8123 29.8778 35.2056 29.7169 34.6582 29.3807C33.0849 28.4095 32.5945 26.34 33.5641 24.7658C34.5345 23.1925 36.6049 22.7022 38.1775 23.6711C38.9403 24.1415 39.4737 24.8807 39.6804 25.7518C39.887 26.6236 39.7419 27.5237 39.2722 28.2858C38.639 29.3125 37.5382 29.8778 36.413 29.8778Z" fill="#323232"/>
<path d="M10.0112 19.7801C9.95131 19.7801 9.8898 19.7734 9.829 19.7586L5.66385 18.7703C5.24091 18.6711 4.9794 18.2468 5.0802 17.8246C5.18011 17.4015 5.60465 17.1401 6.02616 17.24L10.192 18.2281C10.615 18.3289 10.8758 18.7526 10.7757 19.1748C10.6898 19.5364 10.3677 19.7801 10.0112 19.7801V19.7801Z" fill="#323232"/>
<path d="M3.35091 15.6308C3.02434 15.6308 2.70434 15.7213 2.41989 15.8968C2.01545 16.1464 1.73171 16.5391 1.62203 17.0013C1.51251 17.4642 1.58949 17.9412 1.83909 18.3464C2.08869 18.7515 2.48069 19.0345 2.94363 19.1442C3.40656 19.2553 3.88425 19.1775 4.28798 18.9272C4.69314 18.6776 4.97687 18.2857 5.08656 17.8235C5.19625 17.3604 5.11909 16.8827 4.86949 16.4783C4.61989 16.0731 4.22807 15.7901 3.76514 15.6797C3.62736 15.6472 3.48869 15.6308 3.35091 15.6308V15.6308ZM3.36069 20.7665C3.1006 20.7665 2.83909 20.7368 2.5806 20.6753C1.70949 20.468 0.970292 19.9346 0.499892 19.1716C0.030203 18.4093 -0.114864 17.5101 0.0917141 16.6383C0.29847 15.7672 0.831803 15.0287 1.59465 14.5583C2.35696 14.0879 3.25545 13.9426 4.12798 14.1494C4.99909 14.356 5.73758 14.8902 6.20798 15.6523C6.67838 16.4153 6.82363 17.3138 6.61687 18.1857C6.41029 19.0575 5.87625 19.796 5.11394 20.2664C4.57847 20.596 3.97474 20.7665 3.36069 20.7665V20.7665Z" fill="#323232"/>
<path d="M11.1392 15.9222C10.8756 15.9222 10.6185 15.7896 10.4695 15.548L8.22225 11.9044C7.99487 11.5347 8.10953 11.0502 8.47931 10.8228C8.8482 10.594 9.33336 10.7089 9.56145 11.0785L11.8082 14.7229C12.0363 15.0925 11.9214 15.577 11.5511 15.8044C11.423 15.8844 11.2807 15.9222 11.1392 15.9222V15.9222Z" fill="#323232"/>
<path d="M6.59672 7.79065C5.76188 8.3062 5.50125 9.4054 6.01592 10.241C6.53076 11.0765 7.63014 11.3366 8.4657 10.8218C8.87014 10.5722 9.1537 10.1803 9.26339 9.7174C9.37308 9.25518 9.29592 8.77732 9.04703 8.37216C8.53076 7.5366 7.43228 7.27652 6.59672 7.79065V7.79065ZM7.53681 12.658C6.41076 12.658 5.31014 12.0929 4.67743 11.0662C3.70783 9.49287 4.19814 7.42318 5.77148 6.45216C7.3457 5.48398 9.4145 5.97287 10.3848 7.54692C10.8552 8.30923 11.0005 9.20914 10.7937 10.0802C10.5871 10.9521 10.0531 11.6907 9.29076 12.1602C8.74339 12.498 8.13681 12.658 7.53681 12.658V12.658Z" fill="#323232"/>
<path d="M5.59177 25.965C5.32742 25.965 5.07035 25.8316 4.92155 25.5909C4.694 25.2213 4.80884 24.7376 5.17844 24.5095L8.82217 22.2628C9.19177 22.0347 9.67711 22.1495 9.90448 22.5191C10.1326 22.8887 10.0177 23.3732 9.64813 23.6005L6.00368 25.848C5.8748 25.9266 5.73257 25.965 5.59177 25.965V25.965Z" fill="#323232"/>
<path d="M1.89743 27.4609C2.41299 28.2957 3.51148 28.5556 4.34703 28.0408C4.75148 27.7919 5.03521 27.4001 5.14472 26.9371C5.25441 26.4742 5.17743 25.9963 4.92783 25.5912C4.41299 24.7556 3.3129 24.4957 2.47805 25.0104C2.07361 25.2602 1.79005 25.652 1.68037 26.1149C1.57068 26.5778 1.64783 27.0557 1.89743 27.4609ZM3.41814 29.8779C2.29299 29.8779 1.19219 29.3126 0.558943 28.2859C0.0885433 27.5238 -0.0559901 26.6237 0.150054 25.7519C0.357343 24.8808 0.890677 24.1416 1.65299 23.6719C3.22632 22.7016 5.29672 23.1926 6.26632 24.7659C6.73672 25.5282 6.88179 26.4282 6.67521 27.3002C6.46845 28.1713 5.93512 28.9098 5.17228 29.3802C4.62561 29.717 4.01814 29.8779 3.41814 29.8779V29.8779Z" fill="#323232"/>
<path d="M32.7947 34.0433H7.0562C6.62224 34.0433 6.26953 33.6922 6.26953 33.2574C6.26953 32.8232 6.62224 32.4707 7.0562 32.4707H32.7947C33.2288 32.4707 33.5806 32.8232 33.5806 33.2574C33.5806 33.6922 33.2288 34.0433 32.7947 34.0433Z" fill="#323232"/>
</svg>
