<svg width="40" height="40" viewBox="0 0 40 40" fill="none" xmlns="http://www.w3.org/2000/svg">
<g clip-path="url(#clip0_3_5578)">
<path d="M2.3035 26.0426C1.03372 26.0426 0 25.009 0 23.7392V17.527C0 14.9028 2.13525 12.7676 4.76 12.7676C5.17112 12.7676 5.50368 13.101 5.50368 13.512C5.50368 13.9231 5.17112 14.2564 4.76 14.2564C2.95587 14.2564 1.48879 15.7227 1.48879 17.527V23.7392C1.48879 24.1891 1.85435 24.5547 2.3035 24.5547C2.75408 24.5547 3.11964 24.1891 3.11964 23.7392V19.8551C3.11964 19.444 3.4522 19.1114 3.86332 19.1114C4.27426 19.1114 4.60682 19.444 4.60682 19.8551V23.7392C4.60682 25.009 3.57399 26.0426 2.3035 26.0426Z" fill="#323232"/>
<path d="M13.7941 14.9448C13.6506 14.9448 13.5055 14.9037 13.3778 14.8169C12.8359 14.4499 12.2022 14.2564 11.5452 14.2564C11.1335 14.2564 10.8008 13.9231 10.8008 13.512C10.8008 13.101 11.1335 12.7676 11.5452 12.7676C12.5011 12.7676 13.4234 13.0501 14.2126 13.5852C14.5527 13.8155 14.6417 14.2781 14.4106 14.6182C14.2671 14.8304 14.0325 14.9448 13.7941 14.9448Z" fill="#323232"/>
<path d="M8.14292 5.19634C6.68104 5.19634 5.49198 6.38611 5.49198 7.848C5.49198 9.30988 6.68104 10.4989 8.14292 10.4989C9.6048 10.4989 10.7946 9.30988 10.7946 7.848C10.7946 6.38611 9.6048 5.19634 8.14292 5.19634ZM8.14292 11.987C5.86041 11.987 4.00391 10.1305 4.00391 7.848C4.00391 5.56549 5.86041 3.70898 8.14292 3.70898C10.4254 3.70898 12.2826 5.56549 12.2826 7.848C12.2826 10.1305 10.4254 11.987 8.14292 11.987Z" fill="#323232"/>
<path d="M9.87856 26.0426H2.30618C1.89577 26.0426 1.5625 25.7093 1.5625 25.2984C1.5625 24.888 1.89577 24.5547 2.30618 24.5547H9.87856C10.2897 24.5547 10.6222 24.888 10.6222 25.2984C10.6222 25.7093 10.2897 26.0426 9.87856 26.0426Z" fill="#323232"/>
<path d="M8.15924 16.5389C8.0143 16.5389 7.86919 16.4963 7.74363 16.4119L4.35206 14.1293C4.01126 13.8992 3.92085 13.4373 4.15027 13.0965C4.37969 12.7548 4.84229 12.6651 5.18309 12.8947L8.15924 14.8983L11.1361 12.8947C11.4769 12.6651 11.9395 12.7548 12.1682 13.0965C12.3983 13.4373 12.3072 13.8992 11.9664 14.1293L8.57484 16.4119C8.4491 16.4963 8.30417 16.5389 8.15924 16.5389Z" fill="#323232"/>
<path d="M14.1197 28.1238C12.8492 28.1238 11.8164 27.0901 11.8164 25.8203V19.6081C11.8164 16.9841 13.9517 14.8486 16.5757 14.8486C16.9868 14.8486 17.3201 15.1814 17.3201 15.5923C17.3201 16.0034 16.9868 16.3367 16.5757 16.3367C14.7723 16.3367 13.3045 17.8047 13.3045 19.6081V25.8203C13.3045 26.2702 13.6699 26.6357 14.1197 26.6357C14.5698 26.6357 14.9352 26.2702 14.9352 25.8203V21.9362C14.9352 21.525 15.2686 21.1925 15.6795 21.1925C16.0899 21.1925 16.4232 21.525 16.4232 21.9362V25.8203C16.4232 27.0901 15.3897 28.1238 14.1197 28.1238Z" fill="#323232"/>
<path d="M25.8175 28.1238C24.5478 28.1238 23.514 27.0901 23.514 25.8203V21.9362C23.514 21.525 23.8473 21.1925 24.2584 21.1925C24.6687 21.1925 25.0021 21.525 25.0021 21.9362V25.8203C25.0021 26.2702 25.3675 26.6357 25.8175 26.6357C26.2674 26.6357 26.633 26.2702 26.633 25.8203V19.6081C26.633 17.8047 25.165 16.3367 23.3616 16.3367C22.9505 16.3367 22.6172 16.0034 22.6172 15.5923C22.6172 15.1814 22.9505 14.8486 23.3616 14.8486C25.9856 14.8486 28.1209 16.9841 28.1209 19.6081V25.8203C28.1209 27.0901 27.0873 28.1238 25.8175 28.1238Z" fill="#323232"/>
<path d="M19.9591 7.27909C18.4973 7.27909 17.3082 8.46815 17.3082 9.93003C17.3082 11.3919 18.4973 12.5812 19.9591 12.5812C21.4212 12.5812 22.611 11.3919 22.611 9.93003C22.611 8.46815 21.4212 7.27909 19.9591 7.27909ZM19.9591 14.0699C17.6775 14.0699 15.8203 12.2125 15.8203 9.93003C15.8203 7.64752 17.6775 5.79102 19.9591 5.79102C22.2426 5.79102 24.0991 7.64752 24.0991 9.93003C24.0991 12.2125 22.2426 14.0699 19.9591 14.0699Z" fill="#323232"/>
<path d="M25.8193 28.1238H14.1233C13.7124 28.1238 13.3789 27.7904 13.3789 27.3801C13.3789 26.9683 13.7124 26.6357 14.1233 26.6357H25.8193C26.2302 26.6357 26.5637 26.9683 26.5637 27.3801C26.5637 27.7904 26.2302 28.1238 25.8193 28.1238Z" fill="#323232"/>
<path d="M19.9751 18.62C19.8302 18.62 19.686 18.5775 19.5604 18.493L16.1689 16.2098C15.8281 15.9804 15.7368 15.5185 15.9671 15.177C16.1965 14.8369 16.6584 14.7456 16.9992 14.9759L19.9751 16.9788L22.952 14.9759C23.2928 14.7456 23.7547 14.8369 23.9841 15.177C24.2144 15.5185 24.124 15.9804 23.7823 16.2098L20.3907 18.493C20.2652 18.5775 20.1203 18.62 19.9751 18.62Z" fill="#323232"/>
<path d="M37.5752 25.9207C36.3047 25.9207 35.2719 24.8879 35.2719 23.6174V19.734C35.2719 19.3222 35.6044 18.9896 36.0161 18.9896C36.4265 18.9896 36.7598 19.3222 36.7598 19.734V23.6174C36.7598 24.0673 37.1253 24.4329 37.5752 24.4329C38.025 24.4329 38.3906 24.0673 38.3906 23.6174V17.405C38.3906 15.6016 36.9228 14.1338 35.1185 14.1338C34.7083 14.1338 34.375 13.8013 34.375 13.3902C34.375 12.979 34.7083 12.6465 35.1185 12.6465C37.7434 12.6465 39.8787 14.781 39.8787 17.405V23.6174C39.8787 24.8879 38.845 25.9207 37.5752 25.9207Z" fill="#323232"/>
<path d="M26.0573 14.8341C25.8204 14.8341 25.5872 14.7213 25.4428 14.5105C25.2105 14.1711 25.2971 13.7085 25.6365 13.4761C26.4293 12.9328 27.3585 12.6465 28.3226 12.6465C28.7335 12.6465 29.0663 12.979 29.0663 13.3902C29.0663 13.8013 28.7335 14.1338 28.3226 14.1338C27.6596 14.1338 27.0214 14.3319 26.4772 14.7041C26.3488 14.7923 26.2022 14.8341 26.0573 14.8341Z" fill="#323232"/>
<path d="M31.7171 5.07499C30.2553 5.07499 29.0662 6.26404 29.0662 7.72593C29.0662 9.18781 30.2553 10.3776 31.7171 10.3776C33.179 10.3776 34.3688 9.18781 34.3688 7.72593C34.3688 6.26404 33.179 5.07499 31.7171 5.07499ZM31.7171 11.8649C29.4353 11.8649 27.5781 10.0084 27.5781 7.72593C27.5781 5.44342 29.4353 3.58691 31.7171 3.58691C33.9997 3.58691 35.8569 5.44342 35.8569 7.72593C35.8569 10.0084 33.9997 11.8649 31.7171 11.8649Z" fill="#323232"/>
<path d="M37.5727 25.9205H30.0601C29.649 25.9205 29.3164 25.588 29.3164 25.177C29.3164 24.7659 29.649 24.4326 30.0601 24.4326H37.5727C37.9838 24.4326 38.3164 24.7659 38.3164 25.177C38.3164 25.588 37.9838 25.9205 37.5727 25.9205Z" fill="#323232"/>
<path d="M31.7138 16.4166C31.5688 16.4166 31.4237 16.3749 31.299 16.2896L27.9066 14.0071C27.5658 13.7777 27.4754 13.3149 27.7055 12.9741C27.9342 12.6333 28.3968 12.5429 28.7376 12.7723L31.7138 14.7761L34.6906 12.7723C35.0314 12.5429 35.4933 12.6333 35.7227 12.9741C35.9521 13.3149 35.8624 13.7777 35.5209 14.0071L32.1294 16.2896C32.0038 16.3749 31.8587 16.4166 31.7138 16.4166Z" fill="#323232"/>
<path d="M19.9601 32.7605C19.4132 32.7605 18.9684 33.2059 18.9684 33.7523C18.9684 34.2994 19.4132 34.7448 19.9601 34.7448C20.5081 34.7448 20.9528 34.2994 20.9528 33.7523C20.9528 33.2059 20.5081 32.7605 19.9601 32.7605ZM19.9601 36.2328C18.5933 36.2328 17.4805 35.12 17.4805 33.7523C17.4805 32.3853 18.5933 31.2725 19.9601 31.2725C21.328 31.2725 22.4408 32.3853 22.4408 33.7523C22.4408 35.12 21.328 36.2328 19.9601 36.2328Z" fill="#323232"/>
<path d="M31.7181 29.8758C31.171 29.8758 30.7264 30.3214 30.7264 30.8685C30.7264 31.4156 31.171 31.8602 31.7181 31.8602C32.2652 31.8602 32.7099 31.4156 32.7099 30.8685C32.7099 30.3214 32.2652 29.8758 31.7181 29.8758ZM31.7181 33.3483C30.3511 33.3483 29.2383 32.2362 29.2383 30.8685C29.2383 29.5008 30.3511 28.3887 31.7181 28.3887C33.0858 28.3887 34.1986 29.5008 34.1986 30.8685C34.1986 32.2362 33.0858 33.3483 31.7181 33.3483Z" fill="#323232"/>
<path d="M8.24226 29.8758C7.69445 29.8758 7.24979 30.3214 7.24979 30.8685C7.24979 31.4156 7.69445 31.8602 8.24226 31.8602C8.78934 31.8602 9.234 31.4156 9.234 30.8685C9.234 30.3214 8.78934 29.8758 8.24226 29.8758ZM8.24226 33.3483C6.87454 33.3483 5.76172 32.2362 5.76172 30.8685C5.76172 29.5008 6.87454 28.3887 8.24226 28.3887C9.60925 28.3887 10.7221 29.5008 10.7221 30.8685C10.7221 32.2362 9.60925 33.3483 8.24226 33.3483Z" fill="#323232"/>
<path d="M18.234 34.4971H9.39238C8.34897 34.4971 7.5 33.6482 7.5 32.6047C7.5 32.1936 7.83327 31.8604 8.24439 31.8604C8.65534 31.8604 8.98807 32.1936 8.98807 32.6047C8.98807 32.8275 9.1696 33.009 9.39238 33.009H18.234C18.6442 33.009 18.9775 33.3423 18.9775 33.7527C18.9775 34.1638 18.6442 34.4971 18.234 34.4971Z" fill="#323232"/>
<path d="M19.9601 32.7605C19.4132 32.7605 18.9684 33.2059 18.9684 33.7523C18.9684 34.2994 19.4132 34.7448 19.9601 34.7448C20.5081 34.7448 20.9528 34.2994 20.9528 33.7523C20.9528 33.2059 20.5081 32.7605 19.9601 32.7605ZM19.9601 36.2328C18.5933 36.2328 17.4805 35.12 17.4805 33.7523C17.4805 32.3853 18.5933 31.2725 19.9601 31.2725C21.328 31.2725 22.4408 32.3853 22.4408 33.7523C22.4408 35.12 21.328 36.2328 19.9601 36.2328Z" fill="#323232"/>
<path d="M30.5421 34.4971H21.7014C21.2896 34.4971 20.957 34.1638 20.957 33.7527C20.957 33.3423 21.2896 33.009 21.7014 33.009H30.5421C30.7649 33.009 30.9466 32.8275 30.9466 32.6047C30.9466 32.1936 31.2792 31.8604 31.6901 31.8604C32.1012 31.8604 32.4345 32.1936 32.4345 32.6047C32.4345 33.6482 31.5856 34.4971 30.5421 34.4971Z" fill="#323232"/>
</g>
<defs>
<clipPath id="clip0_3_5578">
<rect width="40" height="40" fill="white"/>
</clipPath>
</defs>
</svg>
