<svg width="20" height="20" viewBox="0 0 20 20" fill="none" xmlns="http://www.w3.org/2000/svg">
<path d="M15.5813 3.51343V2.59005C15.5813 2.08021 15.1709 1.66667 14.6649 1.66667C14.1589 1.66667 13.7485 2.08021 13.7485 2.59005V3.51343H10.9154V2.59005C10.9154 2.08021 10.505 1.66667 9.99898 1.66667C9.49298 1.66667 9.08255 2.08021 9.08255 2.59005V3.51343H6.24949V2.59005C6.24949 2.08021 5.83906 1.66667 5.33306 1.66667C4.82707 1.66667 4.41664 2.08021 4.41664 2.59005V3.51343H3.50021C2.48754 3.51343 1.66667 4.34052 1.66667 5.36088V16.4859C1.66667 17.5062 2.48754 18.3333 3.50021 18.3333H16.4998C17.5125 18.3333 18.3333 17.5062 18.3333 16.4859V5.36088C18.3333 4.34052 17.5125 3.51343 16.4998 3.51343H15.5813ZM16.5873 16.5833H3.4127V8.66667H16.5873V16.5833ZM3.41477 6.91667L3.4127 5.16667H4.32913C4.32913 5.6765 4.73956 6.09005 5.24556 6.09005C5.75155 6.09005 6.16198 5.6765 6.16198 5.16667H8.99504C8.99504 5.6765 9.40547 6.09005 9.91147 6.09005C10.4175 6.09005 10.8279 5.6765 10.8279 5.16667H13.661C13.661 5.6765 14.0714 6.09005 14.5774 6.09005C15.0834 6.09005 15.4938 5.6765 15.4938 5.16667H16.5873V6.91667H3.4127H3.41477Z" fill="#767676"/>
<path d="M12.5 10.8333H15V14.1667H12.5V10.8333Z" fill="#767676"/>
</svg>
