<svg width="20" height="20" viewBox="0 0 20 20" fill="none" xmlns="http://www.w3.org/2000/svg">
<path d="M9.95088 8.72171C10.5005 8.73282 10.9475 8.39611 11.3138 7.7106C11.5897 7.19424 11.7357 6.57647 11.7357 5.92429C11.7357 5.61167 11.5816 5.325 11.3239 5.15833C10.9983 4.94793 10.496 4.69647 9.95194 4.69647C9.41159 4.69647 8.94714 4.8906 8.65274 5.05318C8.36643 5.21131 8.18865 5.51682 8.18865 5.8506V5.92429C8.18865 6.57167 8.3323 7.185 8.60341 7.69798C8.97088 8.39202 9.42163 8.73424 9.95088 8.72171ZM10.0087 9.50838C9.98937 9.50838 9.97052 9.50838 9.95088 9.50722C9.13345 9.53318 8.42012 9.03282 7.90865 8.06536C7.57754 7.43985 7.40234 6.69904 7.40234 5.92429V5.8506C7.40234 5.23096 7.73568 4.66091 8.27274 4.36465C8.64785 4.15727 9.24421 3.91016 9.95194 3.91016C10.6883 3.91016 11.3367 4.2298 11.7512 4.49869C12.2338 4.81096 12.522 5.34349 12.522 5.92429C12.522 6.70536 12.3439 7.45167 12.0075 8.08127C11.5079 9.01611 10.8179 9.50838 10.0087 9.50838Z" fill="#767676"/>
<path d="M7.79532 17.0218C7.57825 17.0218 7.40234 16.8462 7.40234 16.6288V12.9018C7.40234 12.6847 7.57825 12.5088 7.79532 12.5088C8.01274 12.5088 8.18865 12.6847 8.18865 12.9018V16.6288C8.18865 16.8462 8.01274 17.0218 7.79532 17.0218Z" fill="#767676"/>
<path d="M12.1215 17.0218C11.9044 17.0218 11.7285 16.8462 11.7285 16.6288V12.9018C11.7285 12.6847 11.9044 12.5088 12.1215 12.5088C12.3389 12.5088 12.5148 12.6847 12.5148 12.9018V16.6288C12.5148 16.8462 12.3389 17.0218 12.1215 17.0218Z" fill="#767676"/>
<path d="M6.17685 16.2357H13.7476V13.3724C13.711 12.0024 12.8713 10.8791 11.8765 10.8791H8.04796C7.0532 10.8791 6.21356 12.0024 6.17649 13.3827L6.17685 16.2357ZM14.1409 17.022H5.78351C5.56654 17.022 5.39062 16.8465 5.39062 16.629V13.3724C5.43987 11.5287 6.60689 10.0928 8.04796 10.0928H11.8765C13.3176 10.0928 14.4847 11.5287 14.5339 13.362V16.629C14.5339 16.8465 14.358 17.022 14.1409 17.022Z" fill="#767676"/>
<path d="M14.9046 9.89006C14.7265 9.89006 14.5654 9.7682 14.5224 9.5874C14.4724 9.37629 14.6027 9.16446 14.8143 9.11406L16.8969 8.62002C17.1072 8.57006 17.3202 8.70073 17.3702 8.91184C17.4202 9.1234 17.2898 9.33557 17.0783 9.38517L14.9957 9.87931C14.9654 9.88669 14.9346 9.89006 14.9046 9.89006Z" fill="#767676"/>
<path d="M18.2395 7.81689C18.1717 7.81689 18.1028 7.82471 18.0343 7.84097C17.8028 7.89618 17.6066 8.03769 17.4821 8.24026C17.3572 8.44249 17.3187 8.68133 17.3736 8.91289C17.4283 9.144 17.5702 9.33991 17.7724 9.46471C17.975 9.58986 18.2139 9.6288 18.4451 9.57324C18.6765 9.5184 18.8724 9.37689 18.9972 9.17431C19.1221 8.97173 19.1606 8.73324 19.1058 8.50178C19.0088 8.09324 18.6425 7.81689 18.2395 7.81689ZM18.2365 10.3844C17.9295 10.3844 17.6276 10.2991 17.3599 10.1343C16.9787 9.89911 16.7117 9.52986 16.6083 9.09395C16.5051 8.65804 16.5777 8.2088 16.8124 7.82729C17.0476 7.44622 17.4172 7.17911 17.8528 7.07582C18.7521 6.86213 19.6577 7.42098 19.871 8.32026C19.9743 8.75618 19.9017 9.20578 19.6666 9.58693C19.4317 9.96844 19.0621 10.2351 18.6266 10.3388C18.4969 10.3695 18.3666 10.3844 18.2365 10.3844Z" fill="#767676"/>
<path d="M14.3477 7.96111C14.2774 7.96111 14.2063 7.94218 14.1419 7.90218C13.9571 7.78849 13.8997 7.54626 14.0137 7.36146L15.1371 5.53924C15.2508 5.35444 15.4933 5.29702 15.6781 5.41142C15.8629 5.52511 15.9204 5.76733 15.8063 5.95222L14.6829 7.774C14.6085 7.8948 14.4797 7.96111 14.3477 7.96111Z" fill="#767676"/>
<path d="M16.1511 3.7635C15.8526 3.7635 15.56 3.91381 15.3922 4.18608C15.2674 4.38866 15.2289 4.62759 15.2837 4.8587C15.3385 5.09017 15.48 5.28608 15.6826 5.41124C16.1004 5.66795 16.6496 5.53906 16.9074 5.12048C17.1648 4.7027 17.0344 4.1531 16.6166 3.89532C16.4718 3.80608 16.3108 3.7635 16.1511 3.7635ZM16.147 6.32901C15.847 6.32901 15.5433 6.24901 15.2696 6.08012C14.8889 5.84537 14.6219 5.47604 14.5185 5.04012C14.4152 4.60457 14.4877 4.15461 14.7229 3.77346C15.2082 2.98644 16.2429 2.74199 17.0293 3.22608C17.8163 3.71159 18.0619 4.74644 17.5766 5.5331C17.26 6.04644 16.71 6.32901 16.147 6.32901Z" fill="#767676"/>
<path d="M17.1174 12.983C17.047 12.983 16.9755 12.9638 16.9115 12.9245L15.0893 11.8008C14.9044 11.6871 14.847 11.4448 14.9607 11.26C15.0751 11.0752 15.317 11.0178 15.5018 11.1319L17.324 12.2552C17.5088 12.3693 17.5662 12.6112 17.4522 12.796C17.3782 12.9163 17.2493 12.983 17.1174 12.983Z" fill="#767676"/>
<path d="M18.2106 12.3733C17.9117 12.3733 17.6195 12.5229 17.4513 12.7955C17.1939 13.2137 17.3243 13.7629 17.7421 14.0207C18.1599 14.2778 18.7091 14.1482 18.9669 13.7304C19.0917 13.5278 19.1302 13.2889 19.0754 13.0574C19.0202 12.8259 18.8787 12.63 18.6765 12.5051C18.5313 12.4159 18.3698 12.3733 18.2106 12.3733ZM18.2065 14.9389C17.9062 14.9389 17.6028 14.8585 17.3291 14.6904C16.5424 14.2048 16.2973 13.17 16.7821 12.3829C17.2672 11.5962 18.3024 11.3511 19.0887 11.8355C19.4702 12.0707 19.7368 12.4403 19.8402 12.8759C19.9435 13.3118 19.871 13.7618 19.6361 14.1429C19.3195 14.6562 18.7691 14.9389 18.2065 14.9389Z" fill="#767676"/>
<path d="M5.00561 9.89006C4.97566 9.89006 4.9449 9.88668 4.9145 9.87931L2.83192 9.38517C2.62046 9.33557 2.4897 9.1234 2.5401 8.91228C2.59006 8.70073 2.80232 8.57006 3.01308 8.62002L5.09601 9.11406C5.30748 9.16446 5.43788 9.37628 5.38783 9.5874C5.3449 9.7682 5.18383 9.89006 5.00561 9.89006Z" fill="#767676"/>
<path d="M1.67546 7.8159C1.51217 7.8159 1.35217 7.86114 1.20995 7.94887C1.00772 8.07367 0.865857 8.27003 0.811013 8.50114C0.756257 8.73261 0.794746 8.9711 0.919546 9.17367C1.04435 9.37625 1.24035 9.51776 1.47181 9.57261C1.70328 9.62816 1.94212 9.58923 2.14399 9.46407C2.34657 9.33927 2.48843 9.14336 2.54328 8.91225C2.59812 8.6807 2.55955 8.44185 2.43475 8.23963C2.30995 8.03705 2.11403 7.89554 1.88257 7.84034C1.81368 7.82407 1.74435 7.8159 1.67546 7.8159ZM1.68035 10.3837C1.5503 10.3837 1.41955 10.3689 1.2903 10.3381C0.854746 10.2345 0.485146 9.96781 0.249946 9.5863C0.0151015 9.20514 -0.0574318 8.75554 0.0458571 8.31963C0.149235 7.88407 0.415902 7.51483 0.797324 7.27963C1.17848 7.04443 1.62772 6.97181 2.06399 7.07518C2.49955 7.17847 2.86879 7.44558 3.10399 7.82665C3.33919 8.20816 3.41181 8.65741 3.30844 9.09332C3.20515 9.52923 2.93812 9.89847 2.55697 10.1337C2.28923 10.2985 1.98737 10.3837 1.68035 10.3837Z" fill="#767676"/>
<path d="M5.56961 7.96111C5.43779 7.96111 5.30926 7.8948 5.23477 7.774L4.11112 5.95222C3.99743 5.76733 4.05477 5.52511 4.23966 5.41142C4.4241 5.29702 4.66668 5.35444 4.78072 5.53924L5.9041 7.36146C6.01815 7.54626 5.96072 7.78849 5.77557 7.90218C5.71148 7.94218 5.64037 7.96111 5.56961 7.96111Z" fill="#767676"/>
<path d="M3.29836 3.89532C2.88094 4.1531 2.75063 4.7027 3.00796 5.12048C3.26538 5.53826 3.81507 5.6683 4.23285 5.41088C4.43507 5.28608 4.57685 5.09017 4.63169 4.8587C4.68654 4.62759 4.64796 4.38866 4.52352 4.18608C4.26538 3.7683 3.71614 3.63826 3.29836 3.89532ZM3.7684 6.32901C3.20538 6.32901 2.65507 6.04644 2.33872 5.5331C1.85392 4.74644 2.09907 3.71159 2.88574 3.22608C3.67285 2.74199 4.70725 2.98644 5.19241 3.77346C5.42761 4.15461 5.50023 4.60457 5.39685 5.04012C5.29356 5.47604 5.02654 5.84537 4.64538 6.08012C4.37169 6.24901 4.0684 6.32901 3.7684 6.32901Z" fill="#767676"/>
<path d="M2.79589 12.983C2.66371 12.983 2.53518 12.9163 2.46078 12.796C2.347 12.6112 2.40442 12.3693 2.58922 12.2552L4.41109 11.1319C4.59589 11.0178 4.83855 11.0752 4.95224 11.26C5.06629 11.4448 5.00886 11.6871 4.82406 11.8008L3.00184 12.9245C2.9374 12.9638 2.86629 12.983 2.79589 12.983Z" fill="#767676"/>
<path d="M0.948716 13.7304C1.20649 14.1479 1.75574 14.2778 2.17352 14.0204C2.37574 13.8959 2.5176 13.7 2.57236 13.4686C2.6272 13.2371 2.58872 12.9982 2.46392 12.7956C2.20649 12.3778 1.65645 12.2479 1.23903 12.5052C1.03681 12.6301 0.895027 12.826 0.840183 13.0575C0.785338 13.2889 0.823916 13.5279 0.948716 13.7304ZM1.70907 14.939C1.14649 14.939 0.596094 14.6563 0.279472 14.143C0.0442717 13.7619 -0.027995 13.3119 0.0750272 12.8759C0.178672 12.4404 0.445338 12.0708 0.826494 11.8359C1.61316 11.3508 2.64836 11.5963 3.13316 12.383C3.36836 12.7641 3.44089 13.2141 3.3376 13.6501C3.23423 14.0856 2.96756 14.4549 2.58614 14.6901C2.3128 14.8585 2.00907 14.939 1.70907 14.939Z" fill="#767676"/>
<path d="M16.3973 17.0217H3.5281C3.31112 17.0217 3.13477 16.8461 3.13477 16.6287C3.13477 16.4116 3.31112 16.2354 3.5281 16.2354H16.3973C16.6144 16.2354 16.7903 16.4116 16.7903 16.6287C16.7903 16.8461 16.6144 17.0217 16.3973 17.0217Z" fill="#767676"/>
</svg>
